<!-- static header -->
<svg width="100%" height="100%" 
     xmlns="http://www.w3.org/2000/svg"
     viewBox="0 0 1000 650">
  <!-- Debug Rect
  	 <rect x="0" y="0" height="100%" width="100%" fill="white" stroke="red" />
	-->
  <svg x="1%" y="1%" width="98%" height="80%">

   
   <!-- Socket Block -->

    <svg x="1%" y="1%" width="48%" height="100%"> <!-- scaled dimensions based on socket count -->
      <!-- Debug Rect
		     <rect x="0" y="0" height="100%" width="100%" fill="white" stroke="red" />
		-->
      <rect x="1%" y="1%" rx="10%" ry="10%" width="98%" height="98%" fill="black" stroke="black" style="stroke-width:0.5%;opacity:0.5"/>
      

	<!-- Mem block -->
	<svg x="3%" y="7.5%" width="40%" height="85%">
		<rect x="1%" y="1%" width="98%" height="98%" fill="white"/>
		<svg x="2%" y="2%" width="96%" height="96%" viewBox="0 0 100 101" preserveAspectRatio="none"> <!-- Y height of viewBox = num blocks -->
      		<!-- Debug Rect
				<rect x="0" y="0" width="100%" height="100%" fill="white" stroke="red" />
			-->
			<rect x="0" y="0"   width="100%" height="1" fill="green" />
			<rect x="0" y="50"  width="100%" height="1" fill="green" />
			<rect x="0" y="100" width="100%" height="1" fill="green" />
		
		</svg>
	</svg>
	<text x="23%" y="92.5%"  dy=".75em" text-anchor="middle"  font-size="25" font-weight="bold" fill="white" >Mem Blocks</text>
	<!-- End mem block -->


	<!-- CPU block -->
      <svg x="45%" y="25%" width="50%" height="50%">
		<rect x="1%" y="1%" rx="10%" ry="10%" width="98%" height="98%" fill="white" stroke="black"/>
		<svg x="2%" y="2%" height="96%" width="96%">
		
			<!-- cx = ((100 / cols ) / 2) * (1 + 2 * col_idx) -->
			<!-- cy = ((100 / rows ) / 2) * (1 + 2 * row_idx) -->
			<!-- r = ((100 / cnt) / 2) - 2 -->
			
			<circle cx="16.67%" cy="16.67%" r="13%" fill="blue" />
			<text x="16.67%" y="16.67%" dy=".25em" text-anchor="middle"  font-size="25" fill="white">1</text>
			<circle cx="50%"    cy="16.67%" r="13%" fill="blue" />
			<text x="50%" y="16.67%" dy=".25em" text-anchor="middle"  font-size="25" fill="white">2</text>
			<circle cx="83.33%" cy="16.67%" r="13%" fill="blue" />
			<text x="83.33%" y="16.67%" dy=".25em" text-anchor="middle"  font-size="25" fill="white">3</text>
 
 	</svg>
      </svg> 
      <text x="70%" y="75%" dy=".75em" text-anchor="middle"  font-size="25" font-weight="bold" fill="white" >CPU Cores</text>
      <!-- end cpu block -->
      
 
    </svg> 

    <!-- end socket block -->



    
  </svg>
</svg>
